<?xml version="1.0" encoding="UTF-8"?>
<svg id="Layer_1" data-name="Layer 1" xmlns="http://www.w3.org/2000/svg" viewBox="0 0 195.26 220">
  <defs>
    <style>
      .cls-1 {
        fill: #3a3939;
      }

      .cls-1, .cls-2, .cls-3, .cls-4, .cls-5, .cls-6, .cls-7, .cls-8, .cls-9, .cls-10, .cls-11, .cls-12, .cls-13, .cls-14, .cls-15, .cls-16, .cls-17, .cls-18, .cls-19, .cls-20, .cls-21 {
        stroke-width: 0px;
      }

      .cls-2 {
        fill: #bdbdbd;
      }

      .cls-3 {
        fill: #848383;
      }

      .cls-4 {
        fill: #fdfefe;
      }

      .cls-5 {
        fill: #323131;
      }

      .cls-6 {
        fill: #606060;
      }

      .cls-7 {
        fill: #3d3c3c;
      }

      .cls-8 {
        fill: #1f1e1e;
      }

      .cls-9 {
        fill: #363534;
      }

      .cls-10 {
        fill: #383737;
      }

      .cls-11 {
        fill: #fcfdfd;
      }

      .cls-12 {
        fill: #2e2d2d;
      }

      .cls-13 {
        fill: #2b2a2a;
      }

      .cls-14 {
        fill: #53524f;
      }

      .cls-15 {
        fill: #373737;
      }

      .cls-16 {
        fill: #794519;
      }

      .cls-17 {
        fill: #464444;
      }

      .cls-18 {
        fill: #434242;
      }

      .cls-19 {
        fill: #b32d3a;
      }

      .cls-20 {
        fill: #fcfcfc;
      }

      .cls-21 {
        fill: #535252;
      }
    </style>
  </defs>
  <path class="cls-8" d="M167.01,41.99c1.91,2.14.56,5.84,3.04,7.4,2.14,1.35,4.95,1.58,7.32,2.63,4.34,1.91,8.62,4,11.51,8.02-.18.23-.41.36-.69.4,0,0-.29.28-.29.28,0,0,.33-.24.33-.24.27-.06.51-.18.72-.36,6.51,7.38,7.09,16.23,5.69,25.28-1.46,9.41-5.71,17.75-12.54,24.35-3.14,3.04-3.34,5.96-2.78,9.76,1.46,9.87.35,19.62-2.79,29.01-2.73,8.18-7.17,15.32-15.25,19.84,2.84,3.06,2.16,6.56,1.32,9.87-2.04,8.02-6.02,14.73-13.69,18.69-3.1,1.6-6.1,3.44-9.31,4.77-8.7,3.61-17.5,7.01-26.26,10.49-.76.3-1.54.74-2.33.78-4.55.22-6.11,2.91-6.01,7.05h-10c-.17-.3-.27-.61-.33-.93-.46-2.42,2.43-5.07.23-7.06-1.81-1.64-4.81-.75-7.22-1.39-1.92-.51-4.01-.26-5.88-1.08-1.4-.61-2.92-1.37-2.79-3.13.13-1.81,1.73-2.28,3.27-2.51,2.32-.34,4.66-.27,6.99-.18,19.7.78,37.29-5.89,54.06-15.37,4.91-2.77,7.8-7.17,8.87-12.71.31-1.6.95-3.52-1-4.44-1.85-.87-3.14.56-4.24,1.83-5.4,6.21-11.43,11.79-18.74,15.55-12.71,6.54-26.11,8.91-40.16,4.9-6.99-1.99-9.05-3.8-13.65-11.14-2.85,3.31-5.75,6.46-8.84,9.42-.96.92-1.86,1.91-2.94,2.71-1.39,1.02-2.99,2.03-4.5.61-1.76-1.65-.71-3.48.56-4.85,3.17-3.43,6.27-6.91,9.22-10.52,9.48-11.62,17.38-24.05,19.84-39.22,2.65-16.34-10.41-27.89-26.42-23.35-10.39,2.95-18.84,9.11-26.51,16.42-13.31,12.68-23.56,27.55-31.33,44.19-.76,1.63-.84,4.07-3.49,4.25v-12c4.56-13.83,14.11-24.32,23.57-34.81,4.75-5.26,10.02-10.04,15.51-15.67-7.53-1.4-13.87-3.56-19.56-7.58C5.76,102.23-.17,85.78,4.59,69.69c4.28-14.45,17.9-24.31,34.47-24.96,26.47-1.03,45.47,15.97,48.16,43.04.13,1.26-.34,2.66,1.09,4.18,6.29-6.05,13.93-9.35,22.6-10.34,2.49-.28,3.5-1.81,2.48-4.27-2.9-7-2.06-13.74,1.65-20.13,1.64-2.84,1.05-3.92-2.06-4.8-8.14-2.3-15.35-6.4-21.45-12.3-4.48-4.33-7.82-9.2-6.48-15.89.58-2.9-1.07-2.45-2.86-2.27-14.46,1.43-27.88,6.34-40.94,12.38-12.58,5.83-24.38,13-35.56,21.21-1.67,1.23-3.19,3.07-5.7,2.45v-5c.99-1.74,2.08-3.35,3.83-4.5,22.62-14.87,46.75-26.22,73.54-31.2,8-1.49,16.14-2.63,24.3-.74,3.88.89,5.43-.95,5.85-4.65.45-3.97-.6-7.98.47-11.91h8c-.2,6.79.5,13.59-.43,20.36-.17,1.22.27,1.94,1.23,2.4,7.37,3.58,12.16,10.04,17.58,15.94,5.03-2.7,9.94-5.31,15.63-6.13,3.24-.47,6.14-.25,8.9,1.47-.13.77-.57,1.3-1.26,1.65-1.96.9-5.12,0-5.55,3.2-.38,2.86,1.04,5.21,3.37,6.79,2.72,1.84,5.61,3.14,8.56.31,1.25-1.14.28-3.95,2.98-3.99Z"/>
  <path class="cls-4" d="M0,182c1.58-1.59,1.95-3.8,2.85-5.73,9.71-20.91,23.28-38.79,41.88-52.5,7.53-5.55,15.96-9.53,25.87-8.8,11.41.84,20.41,11.88,18.96,23.19-1.84,14.31-8.37,26.46-16.92,37.72-3.83,5.04-7.95,9.84-12.33,14.42-.8.84-1.61,1.69-2.29,2.63-.38.53-.41,1.24.14,1.81.56.59,1.28.53,1.81.15.94-.67,1.77-1.51,2.65-2.27,4.65-4.03,8.73-8.63,12.96-13.85.79,7.52,5.27,11.2,11.26,13.13,12.44,4.01,24.73,2.61,36.52-2.4,8.98-3.81,16.54-9.8,22.55-17.6.5-.65.96-1.42,1.63-1.81,1.55-.92,3.2-2.08,5.08-.92,1.71,1.05,1.49,2.89,1.29,4.52-.83,6.61-3.66,12.08-9.55,15.56-11.95,7.08-24.71,12.06-38.37,14.77-7.42,1.47-14.87,1.58-22.37,1.13-.83-.05-1.67-.14-2.5-.11-.95.03-1.53.68-1.59,1.55-.04.68.49,1.19,1.2,1.4,4.17,1.29,8.49,1.54,12.81,1.82,1.3.08,2.6.01,4.21.01-.45,3.74-1.28,7.03-2.76,10.16H0v-38Z"/>
  <path class="cls-16" d="M0,58c12.91-9.49,26.3-18.21,40.88-24.94,11.65-5.38,23.65-9.88,36.38-11.84,3.31-.51,6.73-1.52,10.4-1.11.43,2.33-1.67,3.49-1.83,5.54-.44,5.63,2.43,9.71,5.95,13.11,5.97,5.76,13.01,10,21.11,12.4,1.9.56,3.86.66,6.14,1.22-1.94,3.99-4.54,7.44-5.47,11.6-1.04,4.61-1.08,9.13,1.34,13.42,1.72,3.05.52,5.39-3.1,5.59-2.99.17-5.88.78-8.7,1.55-5.67,1.55-10.44,4.71-14.41,9.06-.55.61-1.02,1.34-2.02,1.16-1.13-.9-.62-2.15-.65-3.24-.2-10.32-3.06-19.83-9-28.26-6.26-8.88-14.89-14.18-25.62-16.33-8.83-1.76-17.38-1.2-25.71,2.06-11.45,4.48-18.72,12.55-20.74,24.95-2.17,13.34,1.48,24.77,11.44,33.93,7.01,6.45,15.4,9.95,25.04,10.27.08,1.66-1.34,2.2-2.19,3.07-4.32,4.4-8.76,8.67-13.06,13.08-9.86,10.1-18.49,21.11-24.8,33.82-.35.7-.41,1.66-1.41,1.89V58Z"/>
  <path class="cls-19" d="M108,0c1.76,4.33.97,8.85.63,13.24-.13,1.66-.21,3.59-.91,5.37-4.59-.53-9.09-1.49-13.6-1.49-13.44,0-26.45,2.71-39.04,7.35-17.83,6.58-35.11,14.25-50.72,25.31-1.48,1.05-2.67,2.48-4.37,3.22V0c36,0,72,0,108,0Z"/>
  <path class="cls-14" d="M167.01,41.99c-1.31.46-.88,1.58-.93,2.5-.05.97.15,2.03-1.04,2.52-1.8-1.96-1.5-4.38-1.48-6.74.18-.52.5-.94.95-1.25.26-.07.51-.15.77-.22,1.01.83,1.77,1.79,1.73,3.19Z"/>
  <path class="cls-17" d="M162.1,35.8c1.72.31,2.54,1.56,3.18,3.01-.17.09-.33.2-.49.31-.21.07-.41.14-.62.21-.22-.03-.43-.06-.65-.09-.42-.15-.8-.36-1.16-.62-.52-.45-.85-1.01-.9-1.71.06-.46.27-.82.63-1.11Z"/>
  <path class="cls-8" d="M158,34.84c.11-.48.4-.76.9-.81.77.15,1.71-.03,2.07.98-.06.2-.12.41-.18.61-.27.34-.61.58-1.03.71-.94-.08-1.61-.48-1.77-1.49Z"/>
  <path class="cls-13" d="M162.1,35.8c-.05.45-.09.9-.14,1.35-.73.18-1.15-.19-1.43-.81,0-.42.08-.82.27-1.19l.18-.14c.54.02.96.22,1.12.79Z"/>
  <path class="cls-4" d="M104.91,98.97c5.03-6.04,10.5-11.6,17.48-15.43,6.48-3.56,14.66-2.17,19.07,3.16,1.7,2.06,2.33,4.52,2.98,7.72,2.61-4.58,6.17-7.78,7.32-12.46.25-1.02.72-1.73,1.61-2.36,8.76-6.15,13.63-14.76,15.77-25.08.03-.14.2-.26.31-.38,15.25,3.07,20.12,15.62,17.84,26.37-3.54,16.65-12.93,28.08-29.64,32.87-.95.27-1.94.53-2.92.58-1.48.07-2.99.29-4.53-.26,1.23-3.84,3.64-7.35,3.53-11.65-2.37-.16-2.97,1.71-3.93,2.9-2.72,3.36-5.34,6.81-7.89,10.3-11.47,15.77-27.35,24.13-46.19,27.54-.49.09-1,.12-1.49.11-.3,0-.6-.15-1.21-.32-.16-1.36.18-2.75.4-4.19,1.15-7.31,1.21-14.58-1.34-21.65-2.99-8.29-9.7-12.58-18.51-12.12-7.13.37-13.99,2.08-19.73,6.17-6.55,4.67-13.06,4.11-19.83,1.61-11.86-4.38-20.38-12.46-24.7-24.37-3.43-9.47-1.56-18.4,4.82-26.18,5.86-7.14,13.46-11.28,22.73-11.99,10.78-.83,20.89,1.33,29.71,7.83,8.36,6.16,12.27,15.03,14.42,24.87,1.04,4.75,1.14,9.57,1.15,14.4,0,1.33,0,2.67.01,4,.01,1.28.48,2.41,1.8,2.62,1.09.18,1.68-.83,2.22-1.69,3.94-6.24,9.43-10.66,16.11-13.68,2.57-1.16,5.24-1.95,8.48-2.18-2.08,4.36-5.36,7.51-6.97,11.64-.12,1.68-1.2,2.94-1.9,4.35-.53.83-.85,1.77-1.36,2.62-.24.48-.66.83-.95,1.27-.07.31-.15.64-.21.95-.14.26-.33.5-.54.7.01,0-.34.23-.33.22.01-.01.25.3.26.29.06-.29.2-.52.44-.7.23-.23.33-.5.33-.83.02-.35.16-.63.41-.87.39-.36.68-.79.91-1.27.3-.73.64-1.43,1.03-2.11.7-1.39,1.42-2.75,3.02-3.31Z"/>
  <path class="cls-4" d="M170.59,112.73c1.37,3.7,1.29,7.18,1.32,10.64.06,6.7-.87,13.27-2.95,19.62-3.1,9.46-8.85,16.62-18.7,20.63,1.25-5.45,2.67-10.65,3.3-16.01.41-3.49.24-6.97.27-10.46,0-.49-.12-.99-.24-1.47-.31-1.21-.9-2.27-2.32-2.13-1.28.13-2.11.94-2.12,2.34-.01,2.83.04,5.66-.02,8.49-.18,7.91-1.84,15.5-5.4,22.58-1.96,3.91-4.6,7.33-8.62,9.4-4.58,2.36-7.68,1.06-9.11-3.89-1.65-5.71-1.15-11.57-.76-17.35.36-5.29,1.25-10.55,1.87-15.83.32-2.75,1.29-4.84,3.91-6.41,5.58-3.36,10.49-7.6,14.5-12.81.79-1.02,1.41-2.31,3.07-2.16,7.83.69,15.07-1.36,22-5.19Z"/>
  <path class="cls-19" d="M117.13,181.37c4.09,2.47,8.45-2.32,12.69.75-3.64,3.26-7.62,4.5-12.17,5.05-5.33.64-10.44.31-15.52-1.16-7.77-2.25-14.1-6.48-18.02-13.75-1.7-3.14-1.8-6.41.52-9.33,2.32-2.93,5.48-3.47,8.97-2.61.48.12.91.41,1.39.53,4.55,1.13,4.57,1.13,7.01-2.96,1.22-2.04,2.95-3.62,4.77-5.04,2.12-1.66,6.07-1.24,8.28.57,6.19,5.06,9.4,16.52,3.67,25.15-.53.8-1.53,1.32-1.58,2.8Z"/>
  <path class="cls-4" d="M119.74,48.19c-3.06.04-5.87-.98-8.67-2.02-6.94-2.56-13.19-6.22-18.09-11.85-3.74-4.29-3.98-8.49-1.14-12.17,1.24-1.61,2.64-2.43,4.7-1.98,1.46.32,2.93.61,4.41.79,2.17.27,3.73.27,3.49,3.62-.21,2.93,2.36,5.48,4.88,7.16,5.22,3.48,10.43,7.2,17.1,7.23,1.5,0,2.06.88,2.53,1.93.51,1.14-.23,1.91-1.06,2.5-2.58,1.85-4,5.66-8.15,4.79Z"/>
  <path class="cls-11" d="M160.91,36.28c.1.59.54.78,1.05.87.02.59.36.85.92.88.42.31.83.62,1.02,1.14l-.04-.1c.29.11.43.28.43.5,0,.25-.04.37-.11.37,1.09,2.26,1.13,4.66.87,7.08-2.71,3.2-5.82,2.43-8.89.76-3.55-1.93-5.81-4.91-5.73-9.06.04-2.07,1.28-3.77,3.66-3.95,1.3-.1,2.61.04,3.91.08.67.32,1.34.64,2.02.97.46-.15.76,0,.89.47Z"/>
  <path class="cls-7" d="M101.2,102.05c.6-1.62,1.26-3.21,2.6-4.4.17.61.44,1.13,1.11,1.31-.71,1.55-1.49,3.06-2.81,4.21-.64-.1-.72-.65-.9-1.12Z"/>
  <path class="cls-9" d="M188.01,61c-.25-.18-.5-.36-.75-.54.27-.15.55-.3.82-.46.24.35.21.68-.07,1Z"/>
  <path class="cls-8" d="M188.01,61c.02-.33.04-.66.07-1,.27,0,.54,0,.81.04l.06.07c-.06.56-.41.82-.94.88Z"/>
  <path class="cls-8" d="M164.18,39.93c-.23-.24-.34-.53-.32-.87.31-.02.63,0,.94.05.17.55-.19.7-.61.81Z"/>
  <path class="cls-10" d="M163.9,39.17c-.61-.14-.91-.56-1.02-1.14.67.08,1.03.45,1.02,1.14Z"/>
  <path class="cls-8" d="M160.91,36.28c-.3-.16-.59-.31-.89-.47.1-.41.29-.72.79-.66.03.38.07.75.1,1.13Z"/>
  <path class="cls-8" d="M23.02,94.99c-5.22-6.73-6.25-14.15-3.04-21.94,3.41-8.25,10.44-11.82,18.78-12.79,11.17-1.29,27.3,5.69,31.63,20.68.85,2.95,1.1,5.92.16,8.81-1.39,4.29-5.61,7.58-12.4,7.1-10.18-.73-21.15-10.71-22.97-20.69-.75-4.1-.08-7.94,2.82-11.16.37-.66.81-1.23,1.56-1.43.63.06.13.64.34.03.14-.4-.21-.49-.47-.07-.87.27-1.78-.04-2.62.28-12.37,3.38-16.95,17.02-13.93,25.57.5,1.4.88,2.84,1.32,4.26.43,1.15-.19,1.4-1.16,1.35Z"/>
  <path class="cls-1" d="M34.96,103.15c2.54.6,5.11,1.03,7.73,1.1,1.71.04,3.21.49,4.23,2.56-4.84.69-9.01-.42-12.93-2.81.19-.44.52-.72.98-.86Z"/>
  <path class="cls-5" d="M23.02,94.99c.7-.18,1-.71,1.16-1.35.99,1.39,1.99,2.78,2.98,4.18-.11.19-.21.38-.32.57-.43-.08-.86-.17-1.29-.27-1.1-.84-2.14-1.72-2.54-3.13Z"/>
  <path class="cls-8" d="M34.96,103.15c-.1.55-.51.73-.98.86-.83-.01-1.5-.33-1.98-1.02-.48-.41-.46-.81.05-1.18.97.45,1.94.9,2.91,1.35Z"/>
  <path class="cls-8" d="M101.2,102.05c.3.37.6.75.9,1.12-.09.77-.38,1.43-1.1,1.83-.44.48-.85.45-1.23-.06.12-1.14.82-1.99,1.44-2.89Z"/>
  <path class="cls-12" d="M27.17,97.82c.83.47,1.49,1.1,1.91,1.96.33.44.29.86-.08,1.25-1.01-.22-1.66-.86-2.08-1.76-.23-.38-.24-.77,0-1.15l.26-.3Z"/>
  <path class="cls-2" d="M39.96,63.94c-.65.36-1.31.71-1.96,1.07-.12-.68-.65-.95-1.21-1.19.82-1.15,2.05-.92,3.2-.92.3.24.39.48.28.71-.11.23-.21.34-.32.34Z"/>
  <path class="cls-8" d="M28.99,101.03c.03-.42.06-.83.08-1.25.48.11.93.26,1.07.82.27.3.34.57.21.82-.13.24-.24.36-.35.36-.59.1-.85-.25-1.02-.74Z"/>
  <path class="cls-15" d="M32.05,101.8c-.02.39-.03.79-.05,1.18-.56.08-.97-.07-1.09-.69-.34-.42-.3-.82.07-1.19.54-.06.96.09,1.07.7Z"/>
  <path class="cls-10" d="M99.77,104.94c.41.02.82.04,1.23.06.02.56-.17.96-.77,1.07-.39.43-.77.41-1.12-.05-.11-.56.03-.96.65-1.08Z"/>
  <path class="cls-18" d="M99.78,106.96c.08.6-.31.85-.77,1.05-.31.39-.62.38-.93-.01-.09-.54-.01-.98.66-1.05.35-.34.7-.32,1.04.01Z"/>
  <path class="cls-8" d="M26.91,98.12v1.15c-.45-.38-.9-.77-1.35-1.15.45,0,.9,0,1.35,0Z"/>
  <path class="cls-8" d="M30.98,101.1c-.02.4-.05.8-.07,1.19l-.91-.52c.05-.39.09-.78.14-1.18.28.17.56.34.84.5Z"/>
  <path class="cls-8" d="M99.78,106.96c-.35,0-.69,0-1.04-.01.13-.31.25-.62.38-.93.37.02.75.03,1.12.05-.15.3-.3.59-.45.89Z"/>
  <path class="cls-21" d="M98.08,107.99c.31,0,.62,0,.93.01-.06.62-.32,1.03-1.02.97l.05.05c.02-.34.03-.69.05-1.03Z"/>
  <path class="cls-6" d="M97.98,108.98c-.12.28-.24.56-.35.83-.13-.18-.39-.38-.37-.52.06-.35.38-.43.77-.26l-.05-.05Z"/>
  <path class="cls-20" d="M56.19,79.11c-4.42-.07-9.56-4.58-10.13-8.89-.41-3.08,1.27-5.27,4.26-5.55,4.76-.45,10.45,4.36,10.79,9.12.25,3.52-1.47,5.38-4.92,5.33Z"/>
  <path class="cls-3" d="M39.96,63.94c.01-.35.03-.7.04-1.05q1.18-.6,3.09-.58c-1.36.71-2.25,1.17-3.13,1.63Z"/>
</svg>